<mxfile host="app.diagrams.net" modified="2023-08-20T13:03:29.112Z" agent="Mozilla/5.0 (Windows NT 10.0; Win64; x64) AppleWebKit/537.36 (KHTML, like Gecko) Chrome/115.0.0.0 Safari/537.36 OPR/101.0.0.0 (Edition Yx 08)" etag="4Gccfio7Z2lq2iKhUGmq" version="21.6.8" type="device">
  <diagram id="C5RBs43oDa-KdzZeNtuy" name="Page-1">
    <mxGraphModel dx="757" dy="755" grid="1" gridSize="10" guides="1" tooltips="0" connect="1" arrows="1" fold="1" page="1" pageScale="1" pageWidth="827" pageHeight="1169" math="0" shadow="0">
      <root>
        <mxCell id="WIyWlLk6GJQsqaUBKTNV-0" />
        <mxCell id="WIyWlLk6GJQsqaUBKTNV-1" parent="WIyWlLk6GJQsqaUBKTNV-0" />
        <mxCell id="QuJUpWV3iU7dLVu2fuEj-5" value="" style="edgeStyle=orthogonalEdgeStyle;rounded=0;orthogonalLoop=1;jettySize=auto;html=1;" parent="WIyWlLk6GJQsqaUBKTNV-1" source="QuJUpWV3iU7dLVu2fuEj-4" target="WIyWlLk6GJQsqaUBKTNV-3" edge="1">
          <mxGeometry relative="1" as="geometry">
            <mxPoint x="220" y="90" as="sourcePoint" />
          </mxGeometry>
        </mxCell>
        <mxCell id="h5vV2WDePp1cYY_j7aoi-6" value="" style="edgeStyle=orthogonalEdgeStyle;rounded=0;orthogonalLoop=1;jettySize=auto;html=1;" edge="1" parent="WIyWlLk6GJQsqaUBKTNV-1" source="WIyWlLk6GJQsqaUBKTNV-3" target="h5vV2WDePp1cYY_j7aoi-5">
          <mxGeometry relative="1" as="geometry" />
        </mxCell>
        <mxCell id="h5vV2WDePp1cYY_j7aoi-18" value="" style="edgeStyle=orthogonalEdgeStyle;rounded=0;orthogonalLoop=1;jettySize=auto;html=1;" edge="1" parent="WIyWlLk6GJQsqaUBKTNV-1" source="WIyWlLk6GJQsqaUBKTNV-3" target="h5vV2WDePp1cYY_j7aoi-17">
          <mxGeometry relative="1" as="geometry" />
        </mxCell>
        <mxCell id="WIyWlLk6GJQsqaUBKTNV-3" value="Ячейка существует?&lt;br&gt;table_.count(pos)" style="rounded=1;whiteSpace=wrap;html=1;fontSize=12;glass=0;strokeWidth=1;shadow=0;" parent="WIyWlLk6GJQsqaUBKTNV-1" vertex="1">
          <mxGeometry x="140" y="120" width="160" height="50" as="geometry" />
        </mxCell>
        <mxCell id="QuJUpWV3iU7dLVu2fuEj-4" value="Start" style="ellipse;whiteSpace=wrap;html=1;rounded=1;glass=0;strokeWidth=1;shadow=0;" parent="WIyWlLk6GJQsqaUBKTNV-1" vertex="1">
          <mxGeometry x="170" y="40" width="100" height="40" as="geometry" />
        </mxCell>
        <mxCell id="QuJUpWV3iU7dLVu2fuEj-73" value="false" style="text;html=1;align=center;verticalAlign=middle;resizable=0;points=[];autosize=1;strokeColor=none;fillColor=none;" parent="WIyWlLk6GJQsqaUBKTNV-1" vertex="1">
          <mxGeometry x="320" y="120" width="50" height="30" as="geometry" />
        </mxCell>
        <mxCell id="h5vV2WDePp1cYY_j7aoi-9" value="" style="edgeStyle=orthogonalEdgeStyle;rounded=0;orthogonalLoop=1;jettySize=auto;html=1;" edge="1" parent="WIyWlLk6GJQsqaUBKTNV-1" source="h5vV2WDePp1cYY_j7aoi-5" target="h5vV2WDePp1cYY_j7aoi-8">
          <mxGeometry relative="1" as="geometry" />
        </mxCell>
        <mxCell id="h5vV2WDePp1cYY_j7aoi-11" value="" style="edgeStyle=orthogonalEdgeStyle;rounded=0;orthogonalLoop=1;jettySize=auto;html=1;entryX=0.5;entryY=0;entryDx=0;entryDy=0;" edge="1" parent="WIyWlLk6GJQsqaUBKTNV-1" source="h5vV2WDePp1cYY_j7aoi-5" target="h5vV2WDePp1cYY_j7aoi-10">
          <mxGeometry relative="1" as="geometry" />
        </mxCell>
        <mxCell id="h5vV2WDePp1cYY_j7aoi-5" value="Добавить ячейку в таблицу&lt;br style=&quot;border-color: var(--border-color);&quot;&gt;SetCell()" style="whiteSpace=wrap;html=1;rounded=1;glass=0;strokeWidth=1;shadow=0;" vertex="1" parent="WIyWlLk6GJQsqaUBKTNV-1">
          <mxGeometry x="390" y="120" width="160" height="50" as="geometry" />
        </mxCell>
        <mxCell id="h5vV2WDePp1cYY_j7aoi-14" style="edgeStyle=orthogonalEdgeStyle;rounded=0;orthogonalLoop=1;jettySize=auto;html=1;entryX=0.5;entryY=1;entryDx=0;entryDy=0;" edge="1" parent="WIyWlLk6GJQsqaUBKTNV-1" source="h5vV2WDePp1cYY_j7aoi-8" target="h5vV2WDePp1cYY_j7aoi-10">
          <mxGeometry relative="1" as="geometry" />
        </mxCell>
        <mxCell id="h5vV2WDePp1cYY_j7aoi-22" style="edgeStyle=orthogonalEdgeStyle;rounded=0;orthogonalLoop=1;jettySize=auto;html=1;entryX=1;entryY=0.5;entryDx=0;entryDy=0;exitX=0.5;exitY=1;exitDx=0;exitDy=0;" edge="1" parent="WIyWlLk6GJQsqaUBKTNV-1" source="h5vV2WDePp1cYY_j7aoi-8" target="h5vV2WDePp1cYY_j7aoi-20">
          <mxGeometry relative="1" as="geometry" />
        </mxCell>
        <mxCell id="h5vV2WDePp1cYY_j7aoi-8" value="Проверить на валидность формулы и цикличность" style="whiteSpace=wrap;html=1;rounded=1;glass=0;strokeWidth=1;shadow=0;" vertex="1" parent="WIyWlLk6GJQsqaUBKTNV-1">
          <mxGeometry x="390" y="220" width="160" height="50" as="geometry" />
        </mxCell>
        <mxCell id="h5vV2WDePp1cYY_j7aoi-10" value="throw" style="shape=hexagon;perimeter=hexagonPerimeter2;whiteSpace=wrap;html=1;fixedSize=1;rounded=1;glass=0;strokeWidth=1;shadow=0;" vertex="1" parent="WIyWlLk6GJQsqaUBKTNV-1">
          <mxGeometry x="610" y="170" width="110" height="50" as="geometry" />
        </mxCell>
        <mxCell id="h5vV2WDePp1cYY_j7aoi-12" value="false" style="text;html=1;align=center;verticalAlign=middle;resizable=0;points=[];autosize=1;strokeColor=none;fillColor=none;" vertex="1" parent="WIyWlLk6GJQsqaUBKTNV-1">
          <mxGeometry x="570" y="120" width="50" height="30" as="geometry" />
        </mxCell>
        <mxCell id="h5vV2WDePp1cYY_j7aoi-13" value="true" style="text;html=1;align=center;verticalAlign=middle;resizable=0;points=[];autosize=1;strokeColor=none;fillColor=none;" vertex="1" parent="WIyWlLk6GJQsqaUBKTNV-1">
          <mxGeometry x="470" y="180" width="40" height="30" as="geometry" />
        </mxCell>
        <mxCell id="h5vV2WDePp1cYY_j7aoi-15" value="false" style="text;html=1;align=center;verticalAlign=middle;resizable=0;points=[];autosize=1;strokeColor=none;fillColor=none;" vertex="1" parent="WIyWlLk6GJQsqaUBKTNV-1">
          <mxGeometry x="570" y="220" width="50" height="30" as="geometry" />
        </mxCell>
        <mxCell id="h5vV2WDePp1cYY_j7aoi-21" value="" style="edgeStyle=orthogonalEdgeStyle;rounded=0;orthogonalLoop=1;jettySize=auto;html=1;entryX=0;entryY=0.5;entryDx=0;entryDy=0;exitX=0.5;exitY=1;exitDx=0;exitDy=0;" edge="1" parent="WIyWlLk6GJQsqaUBKTNV-1" source="h5vV2WDePp1cYY_j7aoi-17" target="h5vV2WDePp1cYY_j7aoi-20">
          <mxGeometry relative="1" as="geometry" />
        </mxCell>
        <mxCell id="h5vV2WDePp1cYY_j7aoi-17" value="Инвалидируем КЭШ, сбрасываем зависимости" style="rounded=1;whiteSpace=wrap;html=1;fontSize=12;glass=0;strokeWidth=1;shadow=0;" vertex="1" parent="WIyWlLk6GJQsqaUBKTNV-1">
          <mxGeometry x="140" y="220" width="160" height="50" as="geometry" />
        </mxCell>
        <mxCell id="h5vV2WDePp1cYY_j7aoi-19" value="true" style="text;html=1;align=center;verticalAlign=middle;resizable=0;points=[];autosize=1;strokeColor=none;fillColor=none;" vertex="1" parent="WIyWlLk6GJQsqaUBKTNV-1">
          <mxGeometry x="220" y="180" width="40" height="30" as="geometry" />
        </mxCell>
        <mxCell id="h5vV2WDePp1cYY_j7aoi-20" value="End" style="ellipse;whiteSpace=wrap;html=1;rounded=1;glass=0;strokeWidth=1;shadow=0;" vertex="1" parent="WIyWlLk6GJQsqaUBKTNV-1">
          <mxGeometry x="310" y="290" width="60" height="60" as="geometry" />
        </mxCell>
        <mxCell id="h5vV2WDePp1cYY_j7aoi-23" value="true" style="text;html=1;align=center;verticalAlign=middle;resizable=0;points=[];autosize=1;strokeColor=none;fillColor=none;" vertex="1" parent="WIyWlLk6GJQsqaUBKTNV-1">
          <mxGeometry x="470" y="280" width="40" height="30" as="geometry" />
        </mxCell>
      </root>
    </mxGraphModel>
  </diagram>
</mxfile>
